# Blender v2.90.0 OBJ File: 'Monitor.blend'
# www.blender.org
mtllib Monitor.mtl
o Cube
v 1.000000 2.002844 -1.000000
v 1.000000 0.002844 -1.000000
v 1.000000 2.002844 1.000000
v 1.000000 0.002844 1.000000
v -1.000000 2.002844 -1.000000
v -1.000000 0.002844 -1.000000
v -1.000000 2.002844 1.000000
v -1.000000 0.002844 1.000000
v -1.000000 0.002844 0.815005
v 1.000000 2.002844 0.815005
v -1.000000 2.002844 0.815005
v 1.000000 0.002844 0.815005
v -1.000000 2.002844 -0.819622
v 1.000000 0.002844 -0.819622
v -1.000000 0.002844 -0.819623
v 1.000000 2.002844 -0.819623
v 1.000000 1.847193 -1.000000
v -1.000000 1.847193 1.000000
v 1.000000 1.847193 1.000000
v -1.000000 1.847193 -1.000000
v 1.000000 1.847193 0.815005
v -1.000000 1.847193 0.815005
v 1.000000 1.847193 -0.819623
v -1.000000 1.847193 -0.819622
v 1.000000 0.189496 -1.000000
v 1.000000 0.189496 1.000000
v -1.000000 0.189496 -1.000000
v 1.000000 0.189496 0.815005
v -1.000000 0.189496 0.815005
v 1.000000 0.189496 -0.819622
v -1.000000 0.189496 -0.819623
v -1.000000 0.189496 1.000000
v 0.907308 1.763938 0.732909
v 0.907308 1.763938 -0.737526
v 0.907308 0.272751 0.732909
v 0.907308 0.272751 -0.737526
vt 0.625000 0.726876
vt 0.875000 0.726876
vt 0.875000 0.750000
vt 0.625000 0.750000
vt 0.605544 0.750000
vt 0.625000 1.000000
vt 0.605544 1.000000
vt 0.605544 0.227453
vt 0.625000 0.227453
vt 0.625000 0.250000
vt 0.605544 0.250000
vt 0.125000 0.726876
vt 0.375000 0.726876
vt 0.375000 0.750000
vt 0.125000 0.750000
vt 0.605544 0.726876
vt 0.625000 0.500000
vt 0.605544 0.500000
vt 0.605544 0.522547
vt 0.625000 0.522547
vt 0.125000 0.522547
vt 0.375000 0.522547
vt 0.605544 0.000000
vt 0.625000 0.000000
vt 0.625000 0.023124
vt 0.605544 0.023124
vt 0.875000 0.522547
vt 0.875000 0.500000
vt 0.125000 0.500000
vt 0.375000 0.500000
vt 0.398331 0.023124
vt 0.398331 0.227453
vt 0.398331 0.500000
vt 0.398331 0.522547
vt 0.398331 0.000000
vt 0.605544 0.726876
vt 0.605544 0.522547
vt 0.398331 0.250000
vt 0.398331 0.726876
vt 0.398331 0.750000
vt 0.398331 1.000000
vt 0.375000 1.000000
vt 0.375000 0.227453
vt 0.375000 0.250000
vt 0.375000 0.000000
vt 0.375000 0.023124
vt 0.398331 0.522547
vt 0.398331 0.726876
vn 0.0000 1.0000 0.0000
vn 0.0000 0.0000 1.0000
vn -1.0000 0.0000 0.0000
vn 0.0000 -1.0000 0.0000
vn 1.0000 0.0000 0.0000
vn 0.0000 0.0000 -1.0000
vn 0.6682 -0.7440 0.0000
vn 0.6630 0.0000 0.7486
vn 0.6630 0.0000 -0.7486
vn 0.6682 0.7440 0.0000
g Cube_Cube_Material
usemtl Material
s off
f 10/1/1 11/2/1 7/3/1 3/4/1
f 19/5/2 3/4/2 7/6/2 18/7/2
f 24/8/3 13/9/3 5/10/3 20/11/3
f 9/12/4 12/13/4 4/14/4 8/15/4
f 21/16/5 10/1/5 3/4/5 19/5/5
f 20/11/6 5/10/6 1/17/6 17/18/6
f 23/19/5 16/20/5 10/1/5 21/16/5
f 15/21/4 14/22/4 12/13/4 9/12/4
f 18/23/3 7/24/3 11/25/3 22/26/3
f 16/20/1 13/27/1 11/2/1 10/1/1
f 1/17/1 5/28/1 13/27/1 16/20/1
f 6/29/4 2/30/4 14/22/4 15/21/4
f 17/18/5 1/17/5 16/20/5 23/19/5
f 22/26/3 11/25/3 13/9/3 24/8/3
f 29/31/3 22/26/3 24/8/3 31/32/3
f 25/33/5 17/18/5 23/19/5 30/34/5
f 32/35/3 18/23/3 22/26/3 29/31/3
f 23/19/7 21/16/7 33/36/7 34/37/7
f 27/38/6 20/11/6 17/18/6 25/33/6
f 28/39/5 21/16/5 19/5/5 26/40/5
f 31/32/3 24/8/3 20/11/3 27/38/3
f 26/40/2 19/5/2 18/7/2 32/41/2
f 4/14/2 26/40/2 32/41/2 8/42/2
f 15/43/3 31/32/3 27/38/3 6/44/3
f 12/13/5 28/39/5 26/40/5 4/14/5
f 6/44/6 27/38/6 25/33/6 2/30/6
f 14/22/5 30/34/5 28/39/5 12/13/5
f 8/45/3 32/35/3 29/31/3 9/46/3
f 2/30/5 25/33/5 30/34/5 14/22/5
f 9/46/3 29/31/3 31/32/3 15/43/3
f 36/47/5 34/37/5 33/36/5 35/48/5
f 30/34/8 23/19/8 34/37/8 36/47/8
f 21/16/9 28/39/9 35/48/9 33/36/9
f 28/39/10 30/34/10 36/47/10 35/48/10
