<?xml version="1.0" standalone="no"?>
<!DOCTYPE svg PUBLIC "-//W3C//DTD SVG 1.1//EN" 
  "http://www.w3.org/Graphics/SVG/1.1/DTD/svg11.dtd">
<svg width="1024" height="1024" viewBox="0 0 1024 1024"
     xmlns="http://www.w3.org/2000/svg" version="1.1">
<desc>Monitor.blend, (Blender 2.90.0)</desc>
<polygon stroke="black" stroke-width="1" fill="rgb(204, 204, 204)" fill-opacity="0.25" points="640.000,279.679 896.000,279.679 896.000,256.000 640.000,256.000 " />
<polygon stroke="black" stroke-width="1" fill="rgb(204, 204, 204)" fill-opacity="0.25" points="620.077,256.000 640.000,256.000 640.000,0.000 620.077,0.000 " />
<polygon stroke="black" stroke-width="1" fill="rgb(204, 204, 204)" fill-opacity="0.25" points="620.077,791.088 640.000,791.088 640.000,768.000 620.077,768.000 " />
<polygon stroke="black" stroke-width="1" fill="rgb(204, 204, 204)" fill-opacity="0.25" points="128.000,279.679 384.000,279.679 384.000,256.000 128.000,256.000 " />
<polygon stroke="black" stroke-width="1" fill="rgb(204, 204, 204)" fill-opacity="0.25" points="620.077,279.679 640.000,279.679 640.000,256.000 620.077,256.000 " />
<polygon stroke="black" stroke-width="1" fill="rgb(204, 204, 204)" fill-opacity="0.25" points="620.077,768.000 640.000,768.000 640.000,512.000 620.077,512.000 " />
<polygon stroke="black" stroke-width="1" fill="rgb(204, 204, 204)" fill-opacity="0.25" points="620.077,488.912 640.000,488.912 640.000,279.679 620.077,279.679 " />
<polygon stroke="black" stroke-width="1" fill="rgb(204, 204, 204)" fill-opacity="0.25" points="128.000,488.912 384.000,488.912 384.000,279.679 128.000,279.679 " />
<polygon stroke="black" stroke-width="1" fill="rgb(204, 204, 204)" fill-opacity="0.25" points="620.077,1024.000 640.000,1024.000 640.000,1000.321 620.077,1000.321 " />
<polygon stroke="black" stroke-width="1" fill="rgb(204, 204, 204)" fill-opacity="0.25" points="640.000,488.912 896.000,488.912 896.000,279.679 640.000,279.679 " />
<polygon stroke="black" stroke-width="1" fill="rgb(204, 204, 204)" fill-opacity="0.25" points="640.000,512.000 896.000,512.000 896.000,488.912 640.000,488.912 " />
<polygon stroke="black" stroke-width="1" fill="rgb(204, 204, 204)" fill-opacity="0.25" points="128.000,512.000 384.000,512.000 384.000,488.912 128.000,488.912 " />
<polygon stroke="black" stroke-width="1" fill="rgb(204, 204, 204)" fill-opacity="0.25" points="620.077,512.000 640.000,512.000 640.000,488.912 620.077,488.912 " />
<polygon stroke="black" stroke-width="1" fill="rgb(204, 204, 204)" fill-opacity="0.25" points="620.077,1000.321 640.000,1000.321 640.000,791.088 620.077,791.088 " />
<polygon stroke="black" stroke-width="1" fill="rgb(204, 204, 204)" fill-opacity="0.25" points="407.891,1000.321 620.077,1000.321 620.077,791.088 407.891,791.088 " />
<polygon stroke="black" stroke-width="1" fill="rgb(204, 204, 204)" fill-opacity="0.25" points="407.891,512.000 620.077,512.000 620.077,488.912 407.891,488.912 " />
<polygon stroke="black" stroke-width="1" fill="rgb(204, 204, 204)" fill-opacity="0.25" points="407.891,1024.000 620.077,1024.000 620.077,1000.321 407.891,1000.321 " />
<polygon stroke="black" stroke-width="1" fill="rgb(204, 204, 204)" fill-opacity="0.25" points="620.077,488.912 620.077,279.679 620.077,279.679 620.077,488.912 " />
<polygon stroke="black" stroke-width="1" fill="rgb(204, 204, 204)" fill-opacity="0.25" points="407.891,768.000 620.077,768.000 620.077,512.000 407.891,512.000 " />
<polygon stroke="black" stroke-width="1" fill="rgb(204, 204, 204)" fill-opacity="0.25" points="407.891,279.679 620.077,279.679 620.077,256.000 407.891,256.000 " />
<polygon stroke="black" stroke-width="1" fill="rgb(204, 204, 204)" fill-opacity="0.25" points="407.891,791.088 620.077,791.088 620.077,768.000 407.891,768.000 " />
<polygon stroke="black" stroke-width="1" fill="rgb(204, 204, 204)" fill-opacity="0.25" points="407.891,256.000 620.077,256.000 620.077,0.000 407.891,0.000 " />
<polygon stroke="black" stroke-width="1" fill="rgb(204, 204, 204)" fill-opacity="0.25" points="384.000,256.000 407.891,256.000 407.891,0.000 384.000,0.000 " />
<polygon stroke="black" stroke-width="1" fill="rgb(204, 204, 204)" fill-opacity="0.25" points="384.000,791.088 407.891,791.088 407.891,768.000 384.000,768.000 " />
<polygon stroke="black" stroke-width="1" fill="rgb(204, 204, 204)" fill-opacity="0.25" points="384.000,279.679 407.891,279.679 407.891,256.000 384.000,256.000 " />
<polygon stroke="black" stroke-width="1" fill="rgb(204, 204, 204)" fill-opacity="0.25" points="384.000,768.000 407.891,768.000 407.891,512.000 384.000,512.000 " />
<polygon stroke="black" stroke-width="1" fill="rgb(204, 204, 204)" fill-opacity="0.25" points="384.000,488.912 407.891,488.912 407.891,279.679 384.000,279.679 " />
<polygon stroke="black" stroke-width="1" fill="rgb(204, 204, 204)" fill-opacity="0.25" points="384.000,1024.000 407.891,1024.000 407.891,1000.321 384.000,1000.321 " />
<polygon stroke="black" stroke-width="1" fill="rgb(204, 204, 204)" fill-opacity="0.25" points="384.000,512.000 407.891,512.000 407.891,488.912 384.000,488.912 " />
<polygon stroke="black" stroke-width="1" fill="rgb(204, 204, 204)" fill-opacity="0.25" points="384.000,1000.321 407.891,1000.321 407.891,791.088 384.000,791.088 " />
<polygon stroke="black" stroke-width="1" fill="rgb(204, 204, 204)" fill-opacity="0.25" points="407.891,488.912 620.077,488.912 620.077,279.679 407.891,279.679 " />
<polygon stroke="black" stroke-width="1" fill="rgb(204, 204, 204)" fill-opacity="0.25" points="407.891,488.912 620.077,488.912 620.077,488.912 407.891,488.912 " />
<polygon stroke="black" stroke-width="1" fill="rgb(204, 204, 204)" fill-opacity="0.25" points="620.077,279.679 407.891,279.679 407.891,279.679 620.077,279.679 " />
<polygon stroke="black" stroke-width="1" fill="rgb(204, 204, 204)" fill-opacity="0.25" points="407.891,279.679 407.891,488.912 407.891,488.912 407.891,279.679 " />

</svg>
